<svg version="1.1" id="Layer_1" xmlns="http://www.w3.org/2000/svg" xmlns:xlink="http://www.w3.org/1999/xlink" x="0px" y="0px"
	 width="100%" viewBox="0 0 1024 1024" enable-background="new 0 0 1024 1024" xml:space="preserve">
<path fill="#121212" opacity="1.000000" stroke="none" 
	d="
M708.000000,1025.000000 
	C472.000000,1025.000000 236.500000,1025.000000 1.000000,1025.000000 
	C1.000000,683.666687 1.000000,342.333344 1.000000,1.000000 
	C342.333344,1.000000 683.666687,1.000000 1025.000000,1.000000 
	C1025.000000,342.333344 1025.000000,683.666687 1025.000000,1025.000000 
	C919.500000,1025.000000 814.000000,1025.000000 708.000000,1025.000000 
M391.153381,316.421997 
	C434.978577,316.604340 478.806763,316.549805 522.627258,317.103577 
	C537.047302,317.285797 551.003662,320.652954 563.577698,328.308380 
	C578.900940,337.637665 586.507935,352.440735 591.859558,368.699158 
	C595.894775,380.958435 599.503784,393.357971 603.312195,405.726532 
	C611.009460,405.726532 618.792175,405.726532 626.858826,405.726532 
	C624.705566,361.485321 622.563416,317.472443 620.404480,273.114868 
	C473.067230,273.114868 325.852325,273.114868 178.393906,273.114868 
	C178.393906,281.189117 178.393906,289.092072 178.393906,297.338104 
	C181.636627,297.338104 184.617493,297.164459 187.572266,297.368622 
	C199.513199,298.193604 211.529129,298.540924 223.359436,300.194489 
	C236.117615,301.977692 245.520813,309.499725 248.663422,322.052032 
	C251.505020,333.401978 253.592194,345.283203 253.634003,356.938660 
	C254.039841,470.096619 253.997559,583.256409 253.948410,696.415649 
	C253.938431,719.403931 253.804459,742.409119 252.906021,765.374451 
	C252.223770,782.813843 243.002029,794.800476 228.159286,799.234619 
	C222.445679,800.941467 216.518524,802.154297 210.601532,802.911255 
	C199.927536,804.276794 189.187958,805.129761 178.379974,806.206360 
	C178.379974,814.138428 178.379974,821.696716 178.379974,829.300537 
	C330.670319,829.300537 482.597015,829.300537 634.606384,829.300537 
	C639.994812,779.464172 645.351929,729.916992 650.748108,680.009216 
	C643.827148,680.009216 637.514221,680.177246 631.217041,679.934570 
	C628.299438,679.822083 627.244202,680.997131 626.341064,683.566833 
	C622.042542,695.796448 617.919495,708.111877 612.982727,720.087036 
	C606.420105,736.006165 598.596985,751.368042 584.660034,762.298645 
	C566.977905,776.166504 546.155151,782.004333 524.183777,782.824097 
	C496.054077,783.873596 467.877197,783.746887 439.719421,783.905396 
	C430.565460,783.956970 421.342804,783.889160 412.264618,782.869446 
	C391.875793,780.579590 385.173950,774.862244 385.323608,754.433228 
	C385.772858,693.108398 385.448730,631.777954 385.426575,570.449707 
	C385.425629,567.848633 385.426483,565.247559 385.426483,562.273438 
	C387.982635,562.273438 389.786621,562.273865 391.590607,562.273376 
	C413.589111,562.267517 435.588043,562.174438 457.585907,562.289795 
	C469.742371,562.353516 481.934662,562.252197 494.043976,563.138428 
	C514.012817,564.599731 525.433594,573.994141 530.945435,593.285828 
	C534.172974,604.582336 536.462463,616.146912 539.248047,627.903870 
	C546.066284,627.903870 553.468079,627.903870 561.063965,627.903870 
	C561.063965,569.905273 561.063965,512.173767 561.063965,454.348328 
	C553.539856,454.348328 546.298096,454.348328 538.841309,454.348328 
	C538.565369,456.398560 538.494629,458.243988 538.052490,459.995697 
	C535.088257,471.739471 532.678772,483.674530 528.859192,495.137634 
	C524.561890,508.034332 515.160522,515.807434 501.284241,517.170898 
	C493.339081,517.951477 485.350861,518.660889 477.377136,518.717407 
	C449.380371,518.915955 421.381531,518.817627 393.383453,518.831726 
	C390.916626,518.832947 388.449799,518.831848 385.633118,518.831848 
	C385.633118,451.208313 385.633118,383.985626 385.633118,316.406219 
	C387.349030,316.406219 388.811096,316.406219 391.153381,316.421997 
M856.608215,112.893730 
	C845.755188,104.579842 833.675842,98.601707 820.496582,95.206352 
	C795.528198,88.773750 771.199768,90.973869 748.058472,102.502930 
	C710.468506,121.230247 690.030945,151.869156 688.512817,193.714157 
	C687.459900,222.737137 698.129456,248.158264 718.479614,269.182434 
	C737.674988,289.013611 761.255432,299.623474 788.684448,300.783356 
	C820.742493,302.138977 848.055542,290.930237 870.097290,267.448853 
	C893.564148,242.449097 902.296021,212.639694 897.293030,179.064026 
	C893.221130,151.737503 878.561584,130.342667 856.608215,112.893730 
z"/>
<path fill="#FEFEFE" opacity="1.000000" stroke="none" 
	d="
M390.713287,316.414124 
	C388.811096,316.406219 387.349030,316.406219 385.633118,316.406219 
	C385.633118,383.985626 385.633118,451.208313 385.633118,518.831848 
	C388.449799,518.831848 390.916626,518.832947 393.383453,518.831726 
	C421.381531,518.817627 449.380371,518.915955 477.377136,518.717407 
	C485.350861,518.660889 493.339081,517.951477 501.284241,517.170898 
	C515.160522,515.807434 524.561890,508.034332 528.859192,495.137634 
	C532.678772,483.674530 535.088257,471.739471 538.052490,459.995697 
	C538.494629,458.243988 538.565369,456.398560 538.841309,454.348328 
	C546.298096,454.348328 553.539856,454.348328 561.063965,454.348328 
	C561.063965,512.173767 561.063965,569.905273 561.063965,627.903870 
	C553.468079,627.903870 546.066284,627.903870 539.248047,627.903870 
	C536.462463,616.146912 534.172974,604.582336 530.945435,593.285828 
	C525.433594,573.994141 514.012817,564.599731 494.043976,563.138428 
	C481.934662,562.252197 469.742371,562.353516 457.585907,562.289795 
	C435.588043,562.174438 413.589111,562.267517 391.590607,562.273376 
	C389.786621,562.273865 387.982635,562.273438 385.426483,562.273438 
	C385.426483,565.247559 385.425629,567.848633 385.426575,570.449707 
	C385.448730,631.777954 385.772858,693.108398 385.323608,754.433228 
	C385.173950,774.862244 391.875793,780.579590 412.264618,782.869446 
	C421.342804,783.889160 430.565460,783.956970 439.719421,783.905396 
	C467.877197,783.746887 496.054077,783.873596 524.183777,782.824097 
	C546.155151,782.004333 566.977905,776.166504 584.660034,762.298645 
	C598.596985,751.368042 606.420105,736.006165 612.982727,720.087036 
	C617.919495,708.111877 622.042542,695.796448 626.341064,683.566833 
	C627.244202,680.997131 628.299438,679.822083 631.217041,679.934570 
	C637.514221,680.177246 643.827148,680.009216 650.748108,680.009216 
	C645.351929,729.916992 639.994812,779.464172 634.606384,829.300537 
	C482.597015,829.300537 330.670319,829.300537 178.379974,829.300537 
	C178.379974,821.696716 178.379974,814.138428 178.379974,806.206360 
	C189.187958,805.129761 199.927536,804.276794 210.601532,802.911255 
	C216.518524,802.154297 222.445679,800.941467 228.159286,799.234619 
	C243.002029,794.800476 252.223770,782.813843 252.906021,765.374451 
	C253.804459,742.409119 253.938431,719.403931 253.948410,696.415649 
	C253.997559,583.256409 254.039841,470.096619 253.634003,356.938660 
	C253.592194,345.283203 251.505020,333.401978 248.663422,322.052032 
	C245.520813,309.499725 236.117615,301.977692 223.359436,300.194489 
	C211.529129,298.540924 199.513199,298.193604 187.572266,297.368622 
	C184.617493,297.164459 181.636627,297.338104 178.393906,297.338104 
	C178.393906,289.092072 178.393906,281.189117 178.393906,273.114868 
	C325.852325,273.114868 473.067230,273.114868 620.404480,273.114868 
	C622.563416,317.472443 624.705566,361.485321 626.858826,405.726532 
	C618.792175,405.726532 611.009460,405.726532 603.312195,405.726532 
	C599.503784,393.357971 595.894775,380.958435 591.859558,368.699158 
	C586.507935,352.440735 578.900940,337.637665 563.577698,328.308380 
	C551.003662,320.652954 537.047302,317.285797 522.627258,317.103577 
	C478.806763,316.549805 434.978577,316.604340 390.713287,316.414124 
z"/>
<path fill="#EA4442" opacity="1.000000" stroke="none" 
	d="
M856.907104,113.089142 
	C878.561584,130.342667 893.221130,151.737503 897.293030,179.064026 
	C902.296021,212.639694 893.564148,242.449097 870.097290,267.448853 
	C848.055542,290.930237 820.742493,302.138977 788.684448,300.783356 
	C761.255432,299.623474 737.674988,289.013611 718.479614,269.182434 
	C698.129456,248.158264 687.459900,222.737137 688.512817,193.714157 
	C690.030945,151.869156 710.468506,121.230247 748.058472,102.502930 
	C771.199768,90.973869 795.528198,88.773750 820.496582,95.206352 
	C833.675842,98.601707 845.755188,104.579842 856.907104,113.089142 
z"/>
</svg>